<mxfile host="app.diagrams.net" agent="Mozilla/5.0 (Windows NT 10.0; Win64; x64; rv:129.0) Gecko/20100101 Firefox/129.0" version="24.7.7">
  <diagram id="C5RBs43oDa-KdzZeNtuy" name="Page-1">
    <mxGraphModel dx="1221" dy="741" grid="1" gridSize="10" guides="1" tooltips="1" connect="1" arrows="1" fold="1" page="1" pageScale="1" pageWidth="827" pageHeight="1169" math="0" shadow="0">
      <root>
        <mxCell id="WIyWlLk6GJQsqaUBKTNV-0" />
        <mxCell id="WIyWlLk6GJQsqaUBKTNV-1" parent="WIyWlLk6GJQsqaUBKTNV-0" />
        <mxCell id="2UfEmOEciE4OLt7rH_L5-16" style="edgeStyle=orthogonalEdgeStyle;rounded=0;orthogonalLoop=1;jettySize=auto;html=1;exitX=1;exitY=0.5;exitDx=0;exitDy=0;entryX=0;entryY=0.5;entryDx=0;entryDy=0;" edge="1" parent="WIyWlLk6GJQsqaUBKTNV-1" source="2UfEmOEciE4OLt7rH_L5-2" target="2UfEmOEciE4OLt7rH_L5-5">
          <mxGeometry relative="1" as="geometry" />
        </mxCell>
        <mxCell id="2UfEmOEciE4OLt7rH_L5-2" value="&lt;font style=&quot;font-size: 21px;&quot;&gt;Start&lt;/font&gt;" style="whiteSpace=wrap;html=1;aspect=fixed;rounded=1;shadow=1;" vertex="1" parent="WIyWlLk6GJQsqaUBKTNV-1">
          <mxGeometry x="40" y="280" width="60" height="60" as="geometry" />
        </mxCell>
        <mxCell id="2UfEmOEciE4OLt7rH_L5-17" style="edgeStyle=orthogonalEdgeStyle;rounded=0;orthogonalLoop=1;jettySize=auto;html=1;exitX=1;exitY=0.5;exitDx=0;exitDy=0;entryX=0;entryY=0.5;entryDx=0;entryDy=0;" edge="1" parent="WIyWlLk6GJQsqaUBKTNV-1" source="2UfEmOEciE4OLt7rH_L5-5" target="2UfEmOEciE4OLt7rH_L5-6">
          <mxGeometry relative="1" as="geometry" />
        </mxCell>
        <mxCell id="2UfEmOEciE4OLt7rH_L5-19" value="注册" style="edgeLabel;html=1;align=center;verticalAlign=middle;resizable=0;points=[];" vertex="1" connectable="0" parent="2UfEmOEciE4OLt7rH_L5-17">
          <mxGeometry x="0.1169" y="-1" relative="1" as="geometry">
            <mxPoint as="offset" />
          </mxGeometry>
        </mxCell>
        <mxCell id="2UfEmOEciE4OLt7rH_L5-18" style="edgeStyle=orthogonalEdgeStyle;rounded=0;orthogonalLoop=1;jettySize=auto;html=1;exitX=1;exitY=0.5;exitDx=0;exitDy=0;entryX=0;entryY=0.5;entryDx=0;entryDy=0;" edge="1" parent="WIyWlLk6GJQsqaUBKTNV-1" source="2UfEmOEciE4OLt7rH_L5-5" target="2UfEmOEciE4OLt7rH_L5-8">
          <mxGeometry relative="1" as="geometry" />
        </mxCell>
        <mxCell id="2UfEmOEciE4OLt7rH_L5-21" value="登录" style="edgeLabel;html=1;align=center;verticalAlign=middle;resizable=0;points=[];" vertex="1" connectable="0" parent="2UfEmOEciE4OLt7rH_L5-18">
          <mxGeometry y="4" relative="1" as="geometry">
            <mxPoint as="offset" />
          </mxGeometry>
        </mxCell>
        <mxCell id="2UfEmOEciE4OLt7rH_L5-5" value="&lt;font style=&quot;font-size: 14px;&quot;&gt;注册/登录表单&lt;/font&gt;" style="rounded=1;whiteSpace=wrap;html=1;" vertex="1" parent="WIyWlLk6GJQsqaUBKTNV-1">
          <mxGeometry x="140" y="285" width="100" height="50" as="geometry" />
        </mxCell>
        <mxCell id="2UfEmOEciE4OLt7rH_L5-23" style="edgeStyle=orthogonalEdgeStyle;rounded=0;orthogonalLoop=1;jettySize=auto;html=1;exitX=1;exitY=0.5;exitDx=0;exitDy=0;" edge="1" parent="WIyWlLk6GJQsqaUBKTNV-1" source="2UfEmOEciE4OLt7rH_L5-6" target="2UfEmOEciE4OLt7rH_L5-11">
          <mxGeometry relative="1" as="geometry" />
        </mxCell>
        <mxCell id="2UfEmOEciE4OLt7rH_L5-6" value="输入用户名、邮箱、密码" style="rounded=1;whiteSpace=wrap;html=1;shadow=0;glass=1;" vertex="1" parent="WIyWlLk6GJQsqaUBKTNV-1">
          <mxGeometry x="354" y="220" width="120" height="60" as="geometry" />
        </mxCell>
        <mxCell id="2UfEmOEciE4OLt7rH_L5-24" style="edgeStyle=orthogonalEdgeStyle;rounded=0;orthogonalLoop=1;jettySize=auto;html=1;exitX=1;exitY=0.5;exitDx=0;exitDy=0;" edge="1" parent="WIyWlLk6GJQsqaUBKTNV-1" source="2UfEmOEciE4OLt7rH_L5-8" target="2UfEmOEciE4OLt7rH_L5-11">
          <mxGeometry relative="1" as="geometry" />
        </mxCell>
        <mxCell id="2UfEmOEciE4OLt7rH_L5-8" value="输入用户名/邮箱和密码" style="rounded=1;whiteSpace=wrap;html=1;glass=1;" vertex="1" parent="WIyWlLk6GJQsqaUBKTNV-1">
          <mxGeometry x="354" y="330" width="120" height="60" as="geometry" />
        </mxCell>
        <mxCell id="2UfEmOEciE4OLt7rH_L5-25" style="edgeStyle=orthogonalEdgeStyle;rounded=0;orthogonalLoop=1;jettySize=auto;html=1;exitX=1;exitY=0.5;exitDx=0;exitDy=0;entryX=0;entryY=0.5;entryDx=0;entryDy=0;" edge="1" parent="WIyWlLk6GJQsqaUBKTNV-1" source="2UfEmOEciE4OLt7rH_L5-11" target="2UfEmOEciE4OLt7rH_L5-12">
          <mxGeometry relative="1" as="geometry" />
        </mxCell>
        <mxCell id="2UfEmOEciE4OLt7rH_L5-26" style="edgeStyle=orthogonalEdgeStyle;rounded=0;orthogonalLoop=1;jettySize=auto;html=1;exitX=1;exitY=0.5;exitDx=0;exitDy=0;entryX=0;entryY=0.5;entryDx=0;entryDy=0;" edge="1" parent="WIyWlLk6GJQsqaUBKTNV-1" source="2UfEmOEciE4OLt7rH_L5-11" target="2UfEmOEciE4OLt7rH_L5-13">
          <mxGeometry relative="1" as="geometry" />
        </mxCell>
        <mxCell id="2UfEmOEciE4OLt7rH_L5-11" value="&lt;font style=&quot;font-size: 14px;&quot;&gt;信息验证&lt;/font&gt;" style="rounded=1;whiteSpace=wrap;html=1;" vertex="1" parent="WIyWlLk6GJQsqaUBKTNV-1">
          <mxGeometry x="520" y="280" width="80" height="50" as="geometry" />
        </mxCell>
        <mxCell id="2UfEmOEciE4OLt7rH_L5-32" style="edgeStyle=orthogonalEdgeStyle;rounded=0;orthogonalLoop=1;jettySize=auto;html=1;exitX=1;exitY=0.5;exitDx=0;exitDy=0;entryX=1;entryY=0.5;entryDx=0;entryDy=0;" edge="1" parent="WIyWlLk6GJQsqaUBKTNV-1" source="2UfEmOEciE4OLt7rH_L5-12" target="2UfEmOEciE4OLt7rH_L5-27">
          <mxGeometry relative="1" as="geometry" />
        </mxCell>
        <mxCell id="2UfEmOEciE4OLt7rH_L5-12" value="验证用户名和邮箱是否唯一，密码强度" style="rounded=1;whiteSpace=wrap;html=1;glass=1;" vertex="1" parent="WIyWlLk6GJQsqaUBKTNV-1">
          <mxGeometry x="650" y="210" width="120" height="60" as="geometry" />
        </mxCell>
        <mxCell id="2UfEmOEciE4OLt7rH_L5-33" style="edgeStyle=orthogonalEdgeStyle;rounded=0;orthogonalLoop=1;jettySize=auto;html=1;exitX=1;exitY=0.5;exitDx=0;exitDy=0;entryX=1;entryY=0.5;entryDx=0;entryDy=0;" edge="1" parent="WIyWlLk6GJQsqaUBKTNV-1" source="2UfEmOEciE4OLt7rH_L5-13" target="2UfEmOEciE4OLt7rH_L5-27">
          <mxGeometry relative="1" as="geometry" />
        </mxCell>
        <mxCell id="2UfEmOEciE4OLt7rH_L5-13" value="验证用户名/邮箱和密码是否匹配" style="rounded=1;whiteSpace=wrap;html=1;glass=1;" vertex="1" parent="WIyWlLk6GJQsqaUBKTNV-1">
          <mxGeometry x="650" y="330" width="120" height="60" as="geometry" />
        </mxCell>
        <mxCell id="2UfEmOEciE4OLt7rH_L5-38" style="edgeStyle=orthogonalEdgeStyle;rounded=0;orthogonalLoop=1;jettySize=auto;html=1;exitX=0.5;exitY=1;exitDx=0;exitDy=0;entryX=0.5;entryY=0;entryDx=0;entryDy=0;" edge="1" parent="WIyWlLk6GJQsqaUBKTNV-1" source="2UfEmOEciE4OLt7rH_L5-27" target="2UfEmOEciE4OLt7rH_L5-31">
          <mxGeometry relative="1" as="geometry" />
        </mxCell>
        <mxCell id="2UfEmOEciE4OLt7rH_L5-39" value="失败" style="edgeLabel;html=1;align=center;verticalAlign=middle;resizable=0;points=[];" vertex="1" connectable="0" parent="2UfEmOEciE4OLt7rH_L5-38">
          <mxGeometry x="-0.2" relative="1" as="geometry">
            <mxPoint as="offset" />
          </mxGeometry>
        </mxCell>
        <mxCell id="2UfEmOEciE4OLt7rH_L5-40" style="edgeStyle=orthogonalEdgeStyle;rounded=0;orthogonalLoop=1;jettySize=auto;html=1;exitX=0;exitY=0.5;exitDx=0;exitDy=0;entryX=1;entryY=0.5;entryDx=0;entryDy=0;" edge="1" parent="WIyWlLk6GJQsqaUBKTNV-1" source="2UfEmOEciE4OLt7rH_L5-27" target="2UfEmOEciE4OLt7rH_L5-28">
          <mxGeometry relative="1" as="geometry">
            <Array as="points">
              <mxPoint x="630" y="495" />
              <mxPoint x="630" y="420" />
              <mxPoint x="490" y="420" />
            </Array>
          </mxGeometry>
        </mxCell>
        <mxCell id="2UfEmOEciE4OLt7rH_L5-41" value="成功" style="edgeLabel;html=1;align=center;verticalAlign=middle;resizable=0;points=[];" vertex="1" connectable="0" parent="2UfEmOEciE4OLt7rH_L5-40">
          <mxGeometry x="-0.08" y="-1" relative="1" as="geometry">
            <mxPoint x="19" y="44" as="offset" />
          </mxGeometry>
        </mxCell>
        <mxCell id="2UfEmOEciE4OLt7rH_L5-56" value="继续注册" style="edgeLabel;html=1;align=center;verticalAlign=middle;resizable=0;points=[];" vertex="1" connectable="0" parent="2UfEmOEciE4OLt7rH_L5-40">
          <mxGeometry x="0.2444" y="3" relative="1" as="geometry">
            <mxPoint x="-21" y="-3" as="offset" />
          </mxGeometry>
        </mxCell>
        <mxCell id="2UfEmOEciE4OLt7rH_L5-55" style="edgeStyle=orthogonalEdgeStyle;rounded=0;orthogonalLoop=1;jettySize=auto;html=1;exitX=0;exitY=0.5;exitDx=0;exitDy=0;entryX=0.5;entryY=0;entryDx=0;entryDy=0;" edge="1" parent="WIyWlLk6GJQsqaUBKTNV-1" source="2UfEmOEciE4OLt7rH_L5-27" target="2UfEmOEciE4OLt7rH_L5-42">
          <mxGeometry relative="1" as="geometry">
            <mxPoint x="590" y="560" as="targetPoint" />
          </mxGeometry>
        </mxCell>
        <mxCell id="2UfEmOEciE4OLt7rH_L5-27" value="&lt;font style=&quot;font-size: 13px;&quot;&gt;验证结果处理&lt;/font&gt;" style="rounded=1;whiteSpace=wrap;html=1;" vertex="1" parent="WIyWlLk6GJQsqaUBKTNV-1">
          <mxGeometry x="670" y="470" width="80" height="50" as="geometry" />
        </mxCell>
        <mxCell id="2UfEmOEciE4OLt7rH_L5-43" style="edgeStyle=orthogonalEdgeStyle;rounded=0;orthogonalLoop=1;jettySize=auto;html=1;exitX=0;exitY=0.5;exitDx=0;exitDy=0;entryX=1;entryY=0.5;entryDx=0;entryDy=0;" edge="1" parent="WIyWlLk6GJQsqaUBKTNV-1" source="2UfEmOEciE4OLt7rH_L5-28" target="2UfEmOEciE4OLt7rH_L5-46">
          <mxGeometry relative="1" as="geometry" />
        </mxCell>
        <mxCell id="2UfEmOEciE4OLt7rH_L5-54" value="用户接收验证邮件" style="edgeLabel;html=1;align=center;verticalAlign=middle;resizable=0;points=[];" vertex="1" connectable="0" parent="2UfEmOEciE4OLt7rH_L5-43">
          <mxGeometry x="0.6923" y="-1" relative="1" as="geometry">
            <mxPoint x="43" y="1" as="offset" />
          </mxGeometry>
        </mxCell>
        <mxCell id="2UfEmOEciE4OLt7rH_L5-28" value="保存用户数据，发送验证邮件" style="rounded=1;whiteSpace=wrap;html=1;glass=1;" vertex="1" parent="WIyWlLk6GJQsqaUBKTNV-1">
          <mxGeometry x="360" y="400" width="120" height="60" as="geometry" />
        </mxCell>
        <mxCell id="2UfEmOEciE4OLt7rH_L5-31" value="返回错误信息（用户名已存在、邮箱已存在等" style="rounded=1;whiteSpace=wrap;html=1;glass=1;" vertex="1" parent="WIyWlLk6GJQsqaUBKTNV-1">
          <mxGeometry x="650" y="570" width="120" height="60" as="geometry" />
        </mxCell>
        <mxCell id="2UfEmOEciE4OLt7rH_L5-83" style="edgeStyle=orthogonalEdgeStyle;rounded=0;orthogonalLoop=1;jettySize=auto;html=1;exitX=0.5;exitY=1;exitDx=0;exitDy=0;entryX=0.5;entryY=0;entryDx=0;entryDy=0;" edge="1" parent="WIyWlLk6GJQsqaUBKTNV-1" source="2UfEmOEciE4OLt7rH_L5-42" target="2UfEmOEciE4OLt7rH_L5-82">
          <mxGeometry relative="1" as="geometry" />
        </mxCell>
        <mxCell id="2UfEmOEciE4OLt7rH_L5-42" value=" 用户成功登录，进入主页" style="rounded=1;whiteSpace=wrap;html=1;glass=1;" vertex="1" parent="WIyWlLk6GJQsqaUBKTNV-1">
          <mxGeometry x="490" y="540" width="120" height="60" as="geometry" />
        </mxCell>
        <mxCell id="2UfEmOEciE4OLt7rH_L5-52" style="edgeStyle=orthogonalEdgeStyle;rounded=0;orthogonalLoop=1;jettySize=auto;html=1;entryX=0.5;entryY=1;entryDx=0;entryDy=0;" edge="1" parent="WIyWlLk6GJQsqaUBKTNV-1" source="2UfEmOEciE4OLt7rH_L5-46" target="2UfEmOEciE4OLt7rH_L5-5">
          <mxGeometry relative="1" as="geometry" />
        </mxCell>
        <mxCell id="2UfEmOEciE4OLt7rH_L5-46" value="用户点击验证链接激活账户" style="rounded=1;whiteSpace=wrap;html=1;glass=1;" vertex="1" parent="WIyWlLk6GJQsqaUBKTNV-1">
          <mxGeometry x="130" y="400" width="120" height="60" as="geometry" />
        </mxCell>
        <mxCell id="2UfEmOEciE4OLt7rH_L5-82" value="&lt;font style=&quot;font-size: 18px;&quot;&gt;Next&lt;/font&gt;" style="whiteSpace=wrap;html=1;aspect=fixed;rounded=1;shadow=1;" vertex="1" parent="WIyWlLk6GJQsqaUBKTNV-1">
          <mxGeometry x="520" y="640" width="60" height="60" as="geometry" />
        </mxCell>
      </root>
    </mxGraphModel>
  </diagram>
</mxfile>
